<svg width="1280" height="520" viewBox="0 0 1280 520" fill="none" xmlns="http://www.w3.org/2000/svg">
  <defs>
    <linearGradient id="line" x1="640" y1="92" x2="640" y2="430" gradientUnits="userSpaceOnUse">
      <stop stop-color="#C7F284"/>
      <stop offset="1" stop-color="#4DD4E8"/>
    </linearGradient>
  </defs>
  <g fill="#111923" stroke="#FFFFFF" stroke-opacity="0.14">
    <rect x="204" y="38" width="872" height="74" rx="24"/>
    <rect x="204" y="134" width="872" height="94" rx="24"/>
    <rect x="204" y="250" width="872" height="74" rx="24"/>
    <rect x="204" y="346" width="872" height="88" rx="24"/>
  </g>
  <g fill="#FFFFFF" font-family="Inter, Arial, sans-serif">
    <text x="248" y="74" font-size="18" letter-spacing="2">LAYER 1</text>
    <text x="248" y="98" font-size="28" font-weight="700">ユーザー / AI Agent</text>
    <text x="744" y="100" font-size="18">自然言語で指示・intent を発行</text>

    <text x="248" y="170" font-size="18" letter-spacing="2">LAYER 2</text>
    <text x="248" y="198" font-size="30" font-weight="700">SKILL.md</text>
    <text x="510" y="182" font-size="18">API 仕様 / 認証 / エラーパターン / Gotchas</text>
    <text x="510" y="208" font-size="18">ベストプラクティス / コード例を AI 向けに束ねる</text>

    <text x="248" y="286" font-size="18" letter-spacing="2">LAYER 3</text>
    <text x="248" y="310" font-size="28" font-weight="700">Jupiter API Layer</text>
    <text x="610" y="296" font-size="18">GET /order → POST /execute</text>
    <text x="610" y="320" font-size="18">署名・送信</text>

    <text x="248" y="382" font-size="18" letter-spacing="2">LAYER 4</text>
    <text x="248" y="410" font-size="28" font-weight="700">Solana Blockchain</text>
    <text x="610" y="394" font-size="17">VersionedTransaction を RPC 経由で</text>
    <text x="610" y="418" font-size="17">オンチェーン確定</text>
  </g>
  <g stroke="url(#line)" stroke-width="8" stroke-linecap="round">
    <path d="M640 112V134"/>
    <path d="M640 228V250"/>
    <path d="M640 324V346"/>
  </g>
  <g fill="#5EE9B5">
    <path d="M640 134L626 110H654L640 134Z"/>
    <path d="M640 250L626 226H654L640 250Z"/>
    <path d="M640 346L626 322H654L640 346Z"/>
  </g>
</svg>
