<svg width="1280" height="560" viewBox="0 0 1280 560" fill="none" xmlns="http://www.w3.org/2000/svg">
  <defs>
    <linearGradient id="g1" x1="120" y1="160" x2="1160" y2="160" gradientUnits="userSpaceOnUse">
      <stop stop-color="#C7F284"/>
      <stop offset="0.5" stop-color="#5EE9B5"/>
      <stop offset="1" stop-color="#4DD4E8"/>
    </linearGradient>
  </defs>
  <g stroke="#FFFFFF" stroke-opacity="0.16" fill="#0F1620" fill-opacity="0.9">
    <rect x="76" y="60" width="248" height="184" rx="24"/>
    <rect x="362" y="60" width="248" height="184" rx="24"/>
    <rect x="648" y="60" width="248" height="184" rx="24"/>
    <rect x="934" y="60" width="248" height="184" rx="24"/>
  </g>
  <g fill="#FFFFFF" font-family="Inter, Arial, sans-serif">
    <text x="104" y="104" font-size="16" letter-spacing="2">1. USER INTENT</text>
    <text x="104" y="138" font-size="27" font-weight="700">ユーザー指示</text>
    <text x="104" y="164" font-size="14">「SOL を」</text>
    <text x="104" y="184" font-size="14">「1000 USDC に」</text>
    <text x="104" y="204" font-size="14">「換えて」</text>
    <text x="104" y="224" font-size="14">「価格条件つきで実行」</text>

    <text x="390" y="104" font-size="16" letter-spacing="2">2. AI AGENT</text>
    <text x="390" y="142" font-size="28" font-weight="700">Intent 解釈</text>
    <text x="390" y="182" font-size="18">SKILL.md を参照して</text>
    <text x="390" y="208" font-size="18">パラメータ抽出</text>

    <text x="676" y="104" font-size="16" letter-spacing="2">3. JUPITER API</text>
    <text x="676" y="142" font-size="28" font-weight="700">呼び出し</text>
    <text x="676" y="182" font-size="18">GET /order</text>
    <text x="676" y="208" font-size="18">POST /execute</text>

    <text x="962" y="104" font-size="16" letter-spacing="2">4. TRANSACTION</text>
    <text x="962" y="142" font-size="28" font-weight="700">署名・送信</text>
    <text x="962" y="182" font-size="18">VersionedTx</text>
    <text x="962" y="208" font-size="18">Solana RPC</text>
  </g>
  <g stroke="url(#g1)" stroke-width="9" stroke-linecap="round">
    <path d="M324 152H362"/>
    <path d="M610 152H648"/>
    <path d="M896 152H934"/>
  </g>
  <g fill="#5EE9B5">
    <path d="M362 152L340 138V166L362 152Z"/>
    <path d="M648 152L626 138V166L648 152Z"/>
    <path d="M934 152L912 138V166L934 152Z"/>
  </g>

  <g>
    <rect x="92" y="308" width="510" height="158" rx="28" fill="#101924" fill-opacity="0.95" stroke="#FFFFFF" stroke-opacity="0.14"/>
    <rect x="678" y="308" width="510" height="158" rx="28" fill="#101924" fill-opacity="0.95" stroke="#FFFFFF" stroke-opacity="0.14"/>
  </g>
  <g fill="#FFFFFF" font-family="Inter, Arial, sans-serif">
    <text x="126" y="350" font-size="28" font-weight="700">デモユースケース</text>
    <text x="126" y="394" font-size="21">• 即時スワップ: 今すぐ SOL → USDC に換えて</text>
    <text x="126" y="430" font-size="21">• DCA 自動化: 毎週月曜に SOL を 100 ドル積立</text>

    <text x="712" y="350" font-size="28" font-weight="700">デモユースケース</text>
    <text x="712" y="394" font-size="21">• 条件付き注文: SOL が 150 ドルを超えたら売り</text>
    <text x="712" y="430" font-size="21">• Lend: USDC を預けて利回りを得たい</text>
  </g>
</svg>
