<svg width="1280" height="560" viewBox="0 0 1280 560" fill="none" xmlns="http://www.w3.org/2000/svg">
  <defs>
    <linearGradient id="hub" x1="640" y1="172" x2="640" y2="364" gradientUnits="userSpaceOnUse">
      <stop stop-color="#C7F284"/>
      <stop offset="0.5" stop-color="#5EE9B5"/>
      <stop offset="1" stop-color="#4DD4E8"/>
    </linearGradient>
    <filter id="glow" x="-50%" y="-50%" width="200%" height="200%">
      <feDropShadow dx="0" dy="0" stdDeviation="14" flood-color="#5EE9B5" flood-opacity="0.22"/>
    </filter>
  </defs>
  <rect x="430" y="172" width="420" height="192" rx="34" fill="url(#hub)" filter="url(#glow)"/>
  <text x="640" y="240" text-anchor="middle" fill="#061018" font-size="54" font-family="Inter, Arial, sans-serif" font-weight="700">Jupiter</text>
  <text x="640" y="294" text-anchor="middle" fill="#061018" font-size="34" font-family="Inter, Arial, sans-serif" font-weight="600">API Hub</text>
  <text x="640" y="330" text-anchor="middle" fill="#12202C" font-size="19" font-family="Inter, Arial, sans-serif">AI Agent が自然言語から接続する</text>
  <text x="640" y="354" text-anchor="middle" fill="#12202C" font-size="19" font-family="Inter, Arial, sans-serif">中心レイヤー</text>

  <g fill="#FFFFFF" fill-opacity="0.94" stroke="#5EE9B5" stroke-opacity="0.35" stroke-width="2">
    <rect x="96" y="84" width="246" height="92" rx="26"/>
    <rect x="938" y="84" width="246" height="92" rx="26"/>
    <rect x="56" y="226" width="246" height="92" rx="26"/>
    <rect x="978" y="226" width="246" height="92" rx="26"/>
    <rect x="96" y="368" width="246" height="92" rx="26"/>
    <rect x="938" y="368" width="246" height="92" rx="26"/>
  </g>

  <g fill="#202833" font-family="Inter, Arial, sans-serif">
    <text x="122" y="122" font-size="22" font-weight="700">Ultra Swap</text>
    <text x="122" y="152" font-size="17">最良レート集約 / ルーティング</text>

    <text x="964" y="122" font-size="22" font-weight="700">Trigger</text>
    <text x="964" y="152" font-size="17">条件付き注文 / 自動売買</text>

    <text x="82" y="264" font-size="22" font-weight="700">Price / Token API</text>
    <text x="82" y="294" font-size="17">マーケット / トークン情報</text>

    <text x="1004" y="264" font-size="22" font-weight="700">Builder Apps</text>
    <text x="1004" y="294" font-size="17">Wallet / Agent / Bot / UI</text>

    <text x="122" y="406" font-size="22" font-weight="700">Recurring</text>
    <text x="122" y="436" font-size="17">DCA 自動化 / 定期実行</text>

    <text x="964" y="406" font-size="22" font-weight="700">Lend</text>
    <text x="964" y="436" font-size="17">Fluid Protocol / 預入・借入</text>
  </g>

  <g stroke="#C7F284" stroke-width="8" stroke-linecap="round">
    <path d="M342 130H430"/>
    <path d="M850 130H938"/>
    <path d="M302 272H430"/>
    <path d="M850 272H978"/>
    <path d="M342 414H430"/>
    <path d="M850 414H938"/>
  </g>
  <g fill="#C7F284">
    <path d="M430 130L406 116V144L430 130Z"/>
    <path d="M850 130L874 116V144L850 130Z"/>
    <path d="M430 272L406 258V286L430 272Z"/>
    <path d="M850 272L874 258V286L850 272Z"/>
    <path d="M430 414L406 400V428L430 414Z"/>
    <path d="M850 414L874 400V428L850 414Z"/>
  </g>
</svg>
