<svg xmlns="http://www.w3.org/2000/svg" viewBox="0 0 99 21" overflow="visible" role="img" aria-labelledby="bulk-title">
  <title id="bulk-title">BULK</title>
  <g fill="#fffef0">
    <g transform="translate(0 .586)">
      <path d="M10.252.937c.02-.146.234-.146.255 0l1.031 7.092 3.631-2.676c.119-.088.269.06.18.177l-2.7 3.539 7.156 1.004c.148.02.148.23 0 .251l-7.156 1.005 2.7 3.537c.089.117-.061.266-.18.178l-3.632-2.675-1.031 7.092c-.021.144-.235.144-.255 0l-1.024-7.042-3.56 2.625c-.119.088-.271-.061-.181-.178l2.693-3.528-7.225-1.014c-.147-.021-.147-.231 0-.251l7.226-1.014-2.692-3.53c-.089-.117.062-.265.181-.177L9.23 7.976 10.253.936z"/>
    </g>
    <path d="M26.844 20.069v-.401c.963-.316 1.167-1.176 1.167-3.24V3.641c0-2.063-.203-2.923-1.167-3.239V0h7.206c4.785 0 6.536 1.462 6.536 3.785 0 1.949-1.255 3.728-4.931 4.357 4.814.145 7.266 2.323 7.294 5.189.059 3.355-2.597 6.738-9.773 6.738zm4.259-2.953c0 2.063.263 2.495 1.518 2.495h.817c4.201 0 6.04-2.18 6.04-5.217 0-3.441-1.956-5.879-6.302-5.879h-2.073zm0-9.059h2.598c2.129 0 3.412-1.606 3.412-3.612 0-2.523-1.837-3.987-4.813-3.987h-1.197zm23.57 12.298c-4.201 0-8.519-1.92-8.519-8.084v-8.63c0-2.063-.205-2.923-1.168-3.239V0h5.427v.402c-.963.316-1.167 1.175-1.167 3.239V12.5c0 5.217 2.625 7.168 6.593 7.168 2.451 0 5.632-1.778 5.632-7.339V5.361c0-3.497-.701-4.502-2.218-4.959V0h3.909v.402c-.962.316-1.166 1.175-1.166 3.239v8.629c0 5.764-3.064 8.085-7.323 8.085zm10.635-.286v-.401c.962-.316 1.166-1.176 1.166-3.24V3.641c0-2.063-.204-2.923-1.166-3.239V0h5.426v.402c-.962.316-1.167 1.175-1.167 3.239v14.48c0 .916.525 1.432 1.459 1.432h2.392c2.947 0 4.465-.688 5.631-3.153l.38.057-.234 3.612zm16.012 0v-.401c.963-.316 1.167-1.176 1.167-3.24V3.641c0-2.063-.204-2.923-1.167-3.239V0h5.426v.402c-.963.316-1.167 1.175-1.167 3.239v6.738l7.089-7.14c1.869-1.863 1.956-2.751.701-2.952V0h4.581v.402c-1.168.316-2.509.716-3.997 2.208l-6.216 6.249.731-.028c4.376-.229 5.222 1.233 7.032 5.791 1.72 4.358 2.129 5.046 3.062 5.046.147 0 .263 0 .438-.029v.43c-.671.172-1.372.201-1.984.201-2.422 0-2.743-.689-4.493-4.902-1.838-4.444-2.13-6.022-4.756-6.022h-.525l-1.663 1.692v5.39c0 2.064.204 2.925 1.167 3.24v.401z"/>
  </g>
</svg>
